<?xml version="1.0" encoding="utf-8"?>
<!-- Generator: Adobe Illustrator 21.0.0, SVG Export Plug-In . SVG Version: 6.00 Build 0)  -->
<svg version="1.1" xmlns="http://www.w3.org/2000/svg" xmlns:xlink="http://www.w3.org/1999/xlink" x="0px" y="0px"
	 viewBox="0 0 117.8 73.4" style="enable-background:new 0 0 117.8 73.4;" xml:space="preserve">
<style type="text/css">
	.st0{fill:#F5F5F7;}
	.st1{fill:#76BB6A;}
	.st2{fill:#FFFFFF;}
	.st3{fill:#AC9686;}
	.st4{clip-path:url(#SVGID_2_);fill:#9D887F;}
	.st5{fill:#B8E4F8;}
	.st6{fill:#86756A;}
	.st7{fill:none;stroke:#A08B7C;stroke-width:8;stroke-linecap:round;stroke-miterlimit:10;}
	.st8{fill:#B09A87;}
	.st9{fill:#8DD088;}
	.st10{opacity:0.5;fill:#646464;}
	.st11{fill:#F07C68;}
	.st12{fill:#383838;}
	.st13{fill:#6A6A6A;}
	.st14{fill:#88C38E;}
	.st15{fill:#F5DC6F;}
	.st16{fill:#ABADAE;}
	.st17{fill:none;stroke:#686868;stroke-width:5;stroke-linecap:round;stroke-linejoin:round;stroke-miterlimit:10;}
	.st18{fill:none;stroke:#A08B7C;stroke-width:13;stroke-linecap:round;stroke-miterlimit:10;}
	.st19{fill:#C5C6C8;}
	.st20{fill:#B59D8C;}
	.st21{fill:#ECECED;}
	.st22{fill:#D8D9DA;}
	.st23{fill:#E2826E;}
	.st24{fill:#917A73;}
	.st25{fill:#CDD67E;}
	.st26{fill:#B3BB6F;}
	.st27{fill:#FDD68C;}
	.st28{opacity:0.1;}
	.st29{fill:#7E6D49;}
	.st30{opacity:0.24;fill:#FFFFFF;}
	.st31{fill:#F5F5F6;}
	.st32{fill:#FFEEC4;}
	.st33{fill:#81B772;}
	.st34{fill:#8FB1C2;}
	.st35{fill:#718D99;}
	.st36{fill:#CAE8F7;}
	.st37{opacity:0.5;}
	.st38{fill:#D0A8B1;}
	.st39{fill:#666666;}
	.st40{opacity:0.2;}
	.st41{fill:#646465;}
	.st42{fill:#9B87A4;}
	.st43{fill:#F4D5AE;}
	.st44{fill:#8D7C6F;}
	.st45{fill:#D9C464;}
	.st46{fill:#F9E2D9;}
	.st47{opacity:8.000000e-02;}
	.st48{fill:#F7B581;}
	.st49{fill:#FFD46C;}
	.st50{fill:#58585A;}
	.st51{fill:#C0E3F6;}
	.st52{fill:#9CC2D5;}
	.st53{clip-path:url(#SVGID_4_);fill:#7E665F;}
	.st54{fill:#60895C;}
	.st55{fill:#D25849;}
	.st56{fill:#A84538;}
	.st57{fill:#7E342A;}
	.st58{fill:#61AD58;}
	.st59{fill:#EEEEEE;}
	.st60{clip-path:url(#SVGID_8_);fill:#7E665F;}
	.st61{fill:#687147;}
	.st62{fill:#F3C4BC;}
	.st63{fill:#D88F98;}
	.st64{fill:#A37278;}
	.st65{fill:#869A41;}
	.st66{clip-path:url(#SVGID_12_);fill:#7E665F;}
	.st67{fill:#CBA13B;}
	.st68{fill:#EAB841;}
	.st69{fill:#EFD342;}
	.st70{fill:#98792C;}
	.st71{clip-path:url(#SVGID_16_);fill:#7E665F;}
	.st72{fill:#F5A749;}
	.st73{fill:#EE8944;}
	.st74{fill:#BA6E13;}
	.st75{fill:#604B41;}
	.st76{clip-path:url(#SVGID_20_);fill:#7E665F;}
	.st77{fill:#6DA244;}
	.st78{fill:none;}
	.st79{fill:#527A33;}
	.st80{fill:#3E5C26;}
	.st81{fill:#9EB34B;}
	.st82{clip-path:url(#SVGID_24_);fill:#7E665F;}
	.st83{fill:#BE8D65;}
	.st84{fill:#8F6A4C;}
	.st85{fill:#724E31;}
	.st86{clip-path:url(#SVGID_28_);fill:#7E665F;}
	.st87{fill:#FFF042;}
	.st88{fill:#E0DD2F;}
	.st89{fill:#B3A71C;}
	.st90{clip-path:url(#SVGID_32_);fill:#7E665F;}
	.st91{fill:#85B973;}
	.st92{clip-path:url(#SVGID_36_);fill:#7E665F;}
	.st93{clip-path:url(#SVGID_40_);fill:#7E665F;}
	.st94{clip-path:url(#SVGID_44_);fill:#7E665F;}
	.st95{clip-path:url(#SVGID_48_);fill:#7E665F;}
	.st96{clip-path:url(#SVGID_52_);fill:#7E665F;}
	.st97{clip-path:url(#SVGID_56_);fill:#7E665F;}
	.st98{clip-path:url(#SVGID_60_);fill:#7E665F;}
	.st99{clip-path:url(#SVGID_64_);fill:#7E665F;}
	.st100{fill:#99999A;}
	.st101{fill:#686868;}
	.st102{fill:#614B42;}
	.st103{fill:none;stroke:#FFFFFF;stroke-miterlimit:10;}
	.st104{fill:#CCCCCC;}
	.st105{fill:#E18B7C;}
	.st106{fill:#8D8D8D;}
	.st107{fill:#4884A6;}
	.st108{fill:#7A6357;}
	.st109{fill:#D78679;}
	.st110{fill:#96C7E3;}
	.st111{fill:none;stroke:#FFFFFF;stroke-width:4;stroke-miterlimit:10;}
	.st112{fill:none;stroke:#AC9686;stroke-width:13;stroke-linecap:round;stroke-miterlimit:10;}
	.st113{fill:#5B9348;}
	.st114{fill:#649F50;}
	.st115{fill:#CB8E3A;}
	.st116{fill:#F7AC47;}
	.st117{fill:#DE826A;}
	.st118{fill:#DDB95F;}
	.st119{fill:#CA7760;}
	.st120{fill:#ACADAE;}
	.st121{clip-path:url(#SVGID_74_);fill:#7E665F;}
	.st122{clip-path:url(#SVGID_78_);fill:#7E665F;}
	.st123{clip-path:url(#SVGID_82_);fill:#7E665F;}
	.st124{fill:#ADADAD;}
	.st125{opacity:0.3;fill:#FFFFFF;}
	.st126{fill:#718DA6;}
	.st127{fill:#A6B8C8;}
	.st128{clip-path:url(#SVGID_86_);fill:#7E665F;}
	.st129{clip-path:url(#SVGID_90_);fill:#7E665F;}
	.st130{clip-path:url(#SVGID_94_);fill:#7E665F;}
	.st131{clip-path:url(#SVGID_98_);fill:#7E665F;}
	.st132{clip-path:url(#SVGID_102_);fill:#7E665F;}
	.st133{fill:#90A6BA;}
	.st134{fill:#838384;}
	.st135{fill:#8A9AA7;}
	.st136{fill:#857166;}
	.st137{fill:#A2887A;}
	.st138{clip-path:url(#SVGID_106_);fill:#7E665F;}
	.st139{clip-path:url(#SVGID_110_);fill:#7E665F;}
	.st140{clip-path:url(#SVGID_114_);fill:#7E665F;}
	.st141{clip-path:url(#SVGID_118_);fill:#7E665F;}
	.st142{clip-path:url(#SVGID_122_);fill:#7E665F;}
	.st143{clip-path:url(#SVGID_126_);fill:#7E665F;}
	.st144{clip-path:url(#SVGID_130_);fill:#7E665F;}
	.st145{clip-path:url(#SVGID_134_);fill:#7E665F;}
	.st146{clip-path:url(#SVGID_138_);fill:#7E665F;}
	.st147{clip-path:url(#SVGID_142_);fill:#7E665F;}
	.st148{fill:none;stroke:#AC9686;stroke-width:11;stroke-miterlimit:10;}
	.st149{fill:#988578;}
	.st150{fill:#A9BE74;}
	.st151{fill:#CDCDCD;}
	.st152{fill:#B4B4B4;}
	.st153{clip-path:url(#SVGID_156_);fill:#7E665F;}
	.st154{clip-path:url(#SVGID_160_);fill:#7E665F;}
	.st155{clip-path:url(#SVGID_164_);fill:#7E665F;}
	.st156{clip-path:url(#SVGID_168_);fill:#7E665F;}
	.st157{clip-path:url(#SVGID_172_);fill:#7E665F;}
	.st158{clip-path:url(#SVGID_176_);fill:#7E665F;}
	.st159{clip-path:url(#SVGID_180_);fill:#7E665F;}
	.st160{clip-path:url(#SVGID_184_);fill:#7E665F;}
	.st161{clip-path:url(#SVGID_188_);fill:#7E665F;}
	.st162{clip-path:url(#SVGID_192_);fill:#7E665F;}
	.st163{clip-path:url(#SVGID_198_);fill:#7E665F;}
	.st164{clip-path:url(#SVGID_202_);fill:#7E665F;}
	.st165{clip-path:url(#SVGID_206_);fill:#7E665F;}
	.st166{clip-path:url(#SVGID_210_);fill:#7E665F;}
	.st167{clip-path:url(#SVGID_214_);fill:#7E665F;}
	.st168{clip-path:url(#SVGID_218_);fill:#7E665F;}
	.st169{clip-path:url(#SVGID_222_);fill:#7E665F;}
	.st170{clip-path:url(#SVGID_226_);fill:#7E665F;}
	.st171{clip-path:url(#SVGID_230_);fill:#7E665F;}
	.st172{clip-path:url(#SVGID_234_);fill:#7E665F;}
	.st173{fill:#73B4D8;}
	.st174{fill:#797978;}
	.st175{fill-rule:evenodd;clip-rule:evenodd;fill:#ECECED;}
	.st176{fill:#FBBE28;}
	.st177{fill:#FFF1A2;}
	.st178{fill:#6C6C6E;}
	.st179{fill:#B56A58;}
	.st180{fill:#FFD57C;}
	.st181{fill:#E2C07F;}
	.st182{opacity:0.24;}
	.st183{fill:#C97462;}
	.st184{opacity:0.3;fill:#656667;}
	.st185{fill:#BD7162;}
	.st186{fill:#DF8A7D;}
	.st187{fill:#D6EDFA;}
	.st188{fill:#B39C8C;}
	.st189{fill:#CCD680;}
	.st190{opacity:8.000000e-02;fill:#666666;}
	.st191{fill:#588CAC;}
	.st192{fill:#9B9D9E;}
	.st193{fill:#85B873;}
	.st194{fill:#9B9C9E;}
	.st195{fill:#929497;}
	.st196{fill:#868789;}
	.st197{fill:none;stroke:#FFFFFF;stroke-width:2;stroke-linecap:round;stroke-linejoin:round;stroke-miterlimit:10;}
	.st198{fill:#3B9FEA;}
	.st199{fill:#ECEDED;}
	.st200{fill:#85D1C9;}
	.st201{fill:#474F59;}
	.st202{fill:#CC5945;}
	.st203{fill:#A34733;}
	.st204{fill:#59595B;}
	.st205{fill:#3E3E40;}
	.st206{fill:#959596;}
	.st207{fill:#CFD0D2;}
	.st208{fill:#C3C3C5;}
	.st209{fill:#E9E9EA;}
	.st210{fill:#FFEDBC;}
	.st211{fill:#FDD359;}
	.st212{fill:#F2BC19;}
	.st213{fill:#F1A72E;}
	.st214{fill:#E68030;}
	.st215{fill:#9BBFD4;}
	.st216{fill:#5C8AAD;}
	.st217{fill:#456981;}
	.st218{fill:#B2CA3C;}
	.st219{fill:#84983A;}
	.st220{fill:#DD816A;}
	.st221{fill:#656667;}
	.st222{fill:#828183;}
	.st223{fill:#97989B;}
	.st224{fill:#D7D6D7;}
	.st225{fill:#AEB0B1;}
	.st226{fill:#B36C57;}
	.st227{fill:#8F7C74;}
	.st228{fill:#847769;}
	.st229{fill:#748B99;}
	.st230{fill:#8FAEC0;}
	.st231{fill:#C9E5F5;}
	.st232{fill:#F2DB59;}
	.st233{fill:#F9D47D;}
	.st234{fill:#F6DFD4;}
	.st235{fill:#CBA6B0;}
	.st236{fill:#9885A4;}
	.st237{fill:#D5C250;}
	.st238{fill:#CCD570;}
	.st239{fill:#9BC884;}
	.st240{fill:#85B769;}
	.st241{fill:#A8BD68;}
	.st242{fill:#F0DEAE;}
	.st243{fill:#EBD086;}
	.st244{fill:#DDC57F;}
	.st245{fill:#DEBE75;}
	.st246{fill:#70A071;}
	.st247{fill:#D0D1D3;}
	.st248{fill:#90AFC2;}
	.st249{fill:#738B9A;}
	.st250{clip-path:url(#SVGID_262_);}
	.st251{fill:#9ACE8F;}
	.st252{opacity:0.1;fill:#58585A;}
	.st253{clip-path:url(#SVGID_264_);}
	.st254{clip-path:url(#SVGID_278_);}
	.st255{clip-path:url(#SVGID_280_);}
	.st256{fill:#799C6E;}
	.st257{clip-path:url(#SVGID_294_);}
	.st258{fill:none;stroke:#9D8979;stroke-width:5;stroke-linecap:round;stroke-linejoin:round;stroke-miterlimit:10;}
	.st259{fill:#FDD68D;}
	.st260{fill:#86776A;}
	.st261{clip-path:url(#SVGID_296_);fill:#7E665F;}
	.st262{clip-path:url(#SVGID_300_);fill:#7E665F;}
	.st263{clip-path:url(#SVGID_304_);fill:#7E665F;}
	.st264{clip-path:url(#SVGID_308_);fill:#7E665F;}
	.st265{clip-path:url(#SVGID_312_);fill:#7E665F;}
	.st266{clip-path:url(#SVGID_316_);fill:#7E665F;}
	.st267{clip-path:url(#SVGID_320_);fill:#7E665F;}
	.st268{clip-path:url(#SVGID_324_);fill:#7E665F;}
	.st269{clip-path:url(#SVGID_328_);}
	.st270{fill:#A08B7C;}
	.st271{fill:#78695F;}
	.st272{fill:#B09A8D;}
	.st273{fill:none;stroke:#B09A87;stroke-width:14;stroke-linecap:round;stroke-miterlimit:10;}
	.st274{fill:#CCD47D;}
	.st275{fill:#828283;}
	.st276{fill:#646464;}
	.st277{clip-path:url(#SVGID_330_);fill:#7E665F;}
	.st278{clip-path:url(#SVGID_334_);fill:#7E665F;}
	.st279{clip-path:url(#SVGID_338_);fill:#7E665F;}
	.st280{clip-path:url(#SVGID_342_);fill:#7E665F;}
	.st281{opacity:0.5;fill:#656667;}
	.st282{fill:#BCA38C;}
	.st283{opacity:0.3;fill:#686868;}
	.st284{fill:#7DB277;}
	.st285{fill:#9AC98D;}
	.st286{fill:#D6D777;}
	.st287{clip-path:url(#SVGID_372_);}
	.st288{fill:#E7E7E8;}
	.st289{fill:#FFD13A;}
	.st290{fill:#E4BC39;}
	.st291{fill:#B3B5B7;}
	.st292{fill:#C5745F;}
	.st293{clip-path:url(#SVGID_384_);}
	.st294{fill:#C1C976;}
	.st295{fill:#EFC867;}
	.st296{clip-path:url(#SVGID_398_);}
	.st297{clip-path:url(#SVGID_412_);}
	.st298{clip-path:url(#SVGID_416_);}
	.st299{clip-path:url(#SVGID_418_);fill:#86756A;}
	.st300{clip-path:url(#SVGID_418_);fill:#AC9686;}
	.st301{clip-path:url(#SVGID_418_);}
	.st302{fill:#97D6F2;}
	.st303{fill:#999999;}
	.st304{fill:#AB9A7A;}
	.st305{fill:#988267;}
	.st306{clip-path:url(#SVGID_420_);}
	.st307{clip-path:url(#SVGID_424_);}
	.st308{clip-path:url(#SVGID_428_);}
	.st309{clip-path:url(#SVGID_430_);}
	.st310{clip-path:url(#SVGID_432_);}
	.st311{fill:none;stroke:#FFFFFF;stroke-width:6;stroke-miterlimit:10;}
	.st312{clip-path:url(#SVGID_434_);}
	.st313{clip-path:url(#SVGID_436_);}
	.st314{clip-path:url(#SVGID_440_);}
	.st315{clip-path:url(#SVGID_442_);}
	.st316{clip-path:url(#SVGID_444_);}
	.st317{fill:none;stroke:#FFFFFF;stroke-width:5;stroke-linecap:round;stroke-miterlimit:10;stroke-dasharray:0,11;}
	.st318{clip-path:url(#SVGID_446_);}
	.st319{fill:none;stroke:#FFFFFF;stroke-width:5;stroke-linecap:round;stroke-linejoin:round;}
	.st320{fill:none;stroke:#FFFFFF;stroke-width:5;stroke-linecap:round;stroke-linejoin:round;stroke-dasharray:0,9.9108;}
	.st321{clip-path:url(#SVGID_450_);}
	.st322{clip-path:url(#SVGID_452_);}
	.st323{clip-path:url(#SVGID_454_);}
	.st324{fill:none;stroke:#FFFFFF;stroke-width:5;stroke-miterlimit:10;}
	.st325{clip-path:url(#SVGID_458_);}
	.st326{fill:none;stroke:#FFFFFF;stroke-width:5;stroke-linecap:round;stroke-linejoin:round;stroke-dasharray:0,10.3631;}
	.st327{clip-path:url(#SVGID_462_);}
	.st328{clip-path:url(#SVGID_464_);}
	.st329{clip-path:url(#SVGID_466_);}
	.st330{clip-path:url(#SVGID_468_);}
	.st331{fill:none;stroke:#FFFFFF;stroke-width:5;stroke-linecap:round;stroke-linejoin:round;stroke-dasharray:0,9.6382;}
	.st332{clip-path:url(#SVGID_472_);}
	.st333{clip-path:url(#SVGID_474_);}
	.st334{clip-path:url(#SVGID_476_);}
	.st335{clip-path:url(#SVGID_478_);}
	.st336{clip-path:url(#SVGID_482_);}
	.st337{clip-path:url(#SVGID_484_);}
	.st338{clip-path:url(#SVGID_486_);}
	.st339{fill:#A2DAF4;}
	.st340{clip-path:url(#SVGID_488_);}
	
		.st341{fill:none;stroke:#FFFFFF;stroke-width:5;stroke-linecap:round;stroke-linejoin:round;stroke-miterlimit:10;stroke-dasharray:0,10;}
	.st342{clip-path:url(#SVGID_490_);}
	.st343{clip-path:url(#SVGID_494_);}
	.st344{clip-path:url(#SVGID_496_);}
	.st345{clip-path:url(#SVGID_498_);}
	.st346{clip-path:url(#SVGID_500_);}
	.st347{clip-path:url(#SVGID_502_);}
	.st348{clip-path:url(#SVGID_506_);}
	.st349{clip-path:url(#SVGID_508_);}
	.st350{clip-path:url(#SVGID_510_);}
	.st351{clip-path:url(#SVGID_512_);}
	.st352{clip-path:url(#SVGID_514_);}
	.st353{clip-path:url(#SVGID_516_);}
	.st354{clip-path:url(#SVGID_520_);}
	.st355{clip-path:url(#SVGID_522_);}
	.st356{clip-path:url(#SVGID_524_);}
	.st357{clip-path:url(#SVGID_526_);}
	.st358{clip-path:url(#SVGID_528_);}
	.st359{clip-path:url(#SVGID_530_);}
	.st360{clip-path:url(#SVGID_532_);}
	.st361{clip-path:url(#SVGID_534_);}
	.st362{fill:#629BBA;}
	.st363{clip-path:url(#SVGID_536_);}
	.st364{clip-path:url(#SVGID_538_);}
	.st365{clip-path:url(#SVGID_540_);}
	.st366{clip-path:url(#SVGID_542_);}
	.st367{fill:#9D887F;}
	.st368{clip-path:url(#SVGID_544_);fill:#9D887F;}
	.st369{clip-path:url(#SVGID_546_);}
	.st370{fill:#EDD192;}
	.st371{fill:#6AADDB;}
	.st372{fill:#6694CB;}
	.st373{clip-path:url(#SVGID_548_);}
	.st374{display:none;}
	.st375{display:inline;}
	.st376{opacity:0.25;fill:#E67AA2;}
</style>
<g id="screenshot">
</g>
<g id="bkg">
</g>
<g id="mokup">
	<g>
		<g>
			<defs>
				<rect id="SVGID_537_" x="55.4" y="11" width="51.6" height="55.4"/>
			</defs>
			<clipPath id="SVGID_2_">
				<use xlink:href="#SVGID_537_"  style="overflow:visible;"/>
			</clipPath>
			<g style="clip-path:url(#SVGID_2_);">
				<g>
					<g>
						<polygon class="st41" points="81.9,25.5 79.6,24.4 58.1,24.3 58.1,50.7 81.9,50.7 						"/>
						<g>
							<g>
								<path class="st3" d="M84.6,69.5L79,56c0-3.3,2.9-10,2.9-10l-11.4-4.3l-0.7-0.2L58,46c0,0,0.6,4.3,0.6,7.6l-3.2,15.9H84.6z"
									/>
								<rect x="68.3" y="39.3" class="st3" width="3.4" height="3.8"/>
								<g class="st40">
									<path class="st39" d="M68.3,39.3v2c0.6,0.1,1.2,0.2,1.9,0.2c0.5,0,1,0,1.5-0.1v-2.1H68.3z"/>
								</g>
								<g>
									<g>
										<ellipse class="st3" cx="61.2" cy="28.8" rx="2.1" ry="2.1"/>
										<ellipse class="st3" cx="79" cy="28.8" rx="2.1" ry="2.1"/>
										<g>
											<path class="st3" d="M79.4,30.7c0,5.1-4.1,9.3-9.2,9.3l0,0c-5.1,0-9.3-4.1-9.3-9.3l0-6.5c0-5.1,4.1-9.3,9.2-9.3l0,0
												c5.1,0,9.3,4.1,9.3,9.3L79.4,30.7z"/>
											<g>
												<path class="st2" d="M70.2,37.2c3.3,0,5.9-2.2,5.9-4.9l-11.8,0C64.3,35,66.9,37.2,70.2,37.2z"/>
											</g>
										</g>
									</g>
								</g>
								<g>
									<path class="st48" d="M82,46l-2.2-0.8c-1.8,3.4-5.5,5.7-9.6,5.7c-4.2,0-7.8-2.4-9.7-5.9L58,46c0,0-2.6,1.1-2.6,4.4v15.9
										l29.2,0V50.4C84.6,47.1,82,46,82,46z"/>
								</g>
							</g>
						</g>
						<path class="st41" d="M81.9,22.8c0-3-1.1-5.7-3-7.8c-2.2-2.5-5.4-4-8.9-4c-6.5,0-11.7,5.2-11.9,11.6l0,0v9.2h0
							c0,0.1,0,0.2,0,0.4c0.4-3.9,4.2-5.1,7.5-6.1c2-0.6,4-1.7,5.6-3.1c0.4-0.3,0.8-0.7,1.1-1.1c0.5,0.4,1,0.8,1.5,1.1
							c0.8,0.4,1.6,0.8,2.4,1.1c2.5,0.8,5.3,1.7,5.6,4.6c0-0.1,0-0.2,0-0.3h0L81.9,22.8z"/>
					</g>
					<g>
						<path class="st3" d="M70,44.3c1.3,0,2.4-0.7,3.1-1.7l-2.5-1l-0.9-0.1l-2.7,1C67.6,43.7,68.7,44.3,70,44.3z"/>
					</g>
				</g>
				<g>
					<g>
						<g>
							<g>
								<path class="st49" d="M94.3,37.8L93,37.6c-5.7-0.8-7.8-3.4-8.2-3.9c-2-2.4-2.1-5.7-0.1-7.4c0.7-0.6,1.7-0.9,2.7-0.9
									c1.6,0,3.3,0.9,4.6,2.3c0.4,0.4,2.6,3,2.4,8.8L94.3,37.8z M87.4,27.8c-0.5,0-0.8,0.1-1.1,0.4c-1,0.8-0.8,2.7,0.4,4.1
									l0.1,0.1c0,0,1.3,1.8,5.2,2.7c-0.2-4.1-1.7-5.7-1.7-5.7l-0.1-0.1C89.4,28.4,88.4,27.8,87.4,27.8z"/>
							</g>
						</g>
						<g>
							<g>
								<path class="st49" d="M92.4,37.5l0-1.3c-0.1-4.2,1.4-6.1,1.8-6.5c0.9-1.1,2.2-1.7,3.5-1.7c0.8,0,1.5,0.3,2.1,0.8
									c1.5,1.3,1.5,3.8,0,5.7c-0.3,0.4-1.9,2.3-6,2.9L92.4,37.5z M95.8,31.4c0,0-0.9,1-1.1,3.3c2.3-0.6,3.1-1.6,3.1-1.6l0.1-0.1
									c0.8-0.9,0.8-2,0.3-2.4c-0.1-0.1-0.3-0.2-0.6-0.2C97,30.4,96.4,30.7,95.8,31.4L95.8,31.4L95.8,31.4z"/>
							</g>
						</g>
						<g>
							<rect x="81" y="38.5" class="st183" width="12.2" height="17.1"/>
						</g>
						<g>
							<rect x="93.2" y="38.5" class="st23" width="12.2" height="17.1"/>
						</g>
						<g>
							<rect x="79.4" y="35.9" class="st185" width="27.6" height="4.5"/>
						</g>
						<g>
							<rect x="97.5" y="35.7" class="st49" width="3.6" height="19.9"/>
						</g>
						<g>
							<rect x="85.3" y="35.7" class="st49" width="3.6" height="19.9"/>
						</g>
					</g>
					<g>
						<g>
							<g>
								<path class="st3" d="M70.5,69c8.2,0,14.9-6.7,14.8-14.9l-5.1,0c0,5.4-4.4,9.8-9.7,9.8"/>
							</g>
							<g>
								<g>
									
										<ellipse transform="matrix(0.5748 -0.8183 0.8183 0.5748 -11.9682 92.2661)" class="st3" cx="82.8" cy="57.6" rx="5" ry="5"/>
								</g>
							</g>
						</g>
						<g>
							<polygon class="st21" points="69.3,69.5 69.3,63.5 71.5,63.5 71.5,69.5 							"/>
						</g>
					</g>
					<g>
						<g>
							<g>
								<path class="st3" d="M85.7,69c8.2,0,14.9-6.7,14.8-14.9l-5.1,0c0,5.4-4.4,9.8-9.7,9.8"/>
							</g>
							<g>
								<g>
									
										<ellipse transform="matrix(0.5748 -0.8183 0.8183 0.5748 -5.5056 104.7031)" class="st3" cx="98" cy="57.6" rx="5" ry="5"/>
								</g>
							</g>
						</g>
						<g>
							<polygon class="st21" points="84.5,69.5 84.5,63.5 86.7,63.5 86.7,69.5 							"/>
						</g>
					</g>
				</g>
			</g>
		</g>
		<g>
			<g>
				<g>
					<path class="st34" d="M22.3,66.4v-17c0-4.1,3.3-5.6,3.3-5.6l14.4-5.4l0.9-0.2l14.9,5.6c0,0,3.3,1.4,3.3,5.6v17H22.3z"/>
				</g>
			</g>
			<g>
				<g>
					<g>
						<path class="st46" d="M40.5,43.2c-2.2,0-4.1-1.3-5-3.2l4.3-1.7l0.9-0.2l4.7,1.8C44.6,41.9,42.7,43.2,40.5,43.2z"/>
					</g>
					<rect x="39.4" y="28.3" class="st46" width="3.1" height="11.4"/>
					<g class="st47">
						<path class="st39" d="M41.1,35.7c0.8,0,0.6-0.1,1.5-0.3v3.2c-0.9,0.2-0.7,0.2-1.5,0.2c-0.8,0-1.6-0.1-1.6-0.3v-3.2
							C39.4,35.6,40.2,35.7,41.1,35.7z"/>
					</g>
					<g>
						<g>
							<ellipse class="st46" cx="52" cy="22.4" rx="2.7" ry="2.7"/>
							<ellipse class="st46" cx="29.2" cy="22.4" rx="2.7" ry="2.7"/>
							<g>
								<path class="st46" d="M28.6,24.7c0,6.6,5.3,12,11.9,12l0,0c6.6,0,11.9-5.3,12-11.9l0-8.3c0-6.6-5.3-12-11.9-12l0,0
									c-6.6,0-11.9,5.3-12,11.9L28.6,24.7z"/>
								<g>
									<path class="st2" d="M40.5,33.2c-4.2,0-7.6-2.8-7.6-6.4l15.2,0C48.1,30.3,44.7,33.2,40.5,33.2z"/>
								</g>
							</g>
						</g>
						<path class="st41" d="M42.6,13.5l0,5l-7.4-5l0,5.1c0,0-8.3-5.2-8.3-5.2c-0.2-0.1,1.7-4.4,1.9-4.7c2.3-5,8.7-8.7,14-8.6
							C48.3,0.1,53.5,3.6,54,9.4c0.4,3.5-1,6.9-1.6,10.4L42.6,13.5z"/>
					</g>
					<g>
						<rect x="22.3" y="49.7" class="st35" width="36.6" height="3.1"/>
					</g>
					<g>
						<rect x="22.3" y="57.2" class="st35" width="36.6" height="3.1"/>
					</g>
				</g>
				<g>
					<path class="st196" d="M21.7,41.2c-0.1-0.4-0.5-0.7-1-0.6l-9.4,2.5c-0.4,0.1-0.7,0.5-0.6,1l4.6,17c0.1,0.4,0.5,0.7,1,0.6
						l9.4-2.5c0.4-0.1,0.7-0.5,0.6-1L21.7,41.2z"/>
					
						<ellipse transform="matrix(0.9656 -0.2601 0.2601 0.9656 -11.3328 6.023)" class="st2" cx="17.1" cy="45.8" rx="1.2" ry="1.2"/>
				</g>
				<g>
					<g>
						<path class="st35" d="M52.1,58.8c1.4-3.3,1.5-6.9,0.1-10.2c-0.7-1.7,0.2-3.6,1.8-4.2c1.7-0.7,3.6,0.2,4.2,1.8
							c2,4.9,1.9,10.3-0.2,15.2v0L52.1,58.8L52.1,58.8z"/>
						<path class="st46" d="M23.3,56.6c1.7-0.7,3.6,0.2,4.2,1.8c2.7,6.8,10.5,10.2,17.3,7.5c3.3-1.3,5.9-3.8,7.3-7.1l6,2.6
							C56,66.2,52.1,70,47.2,72c-3.1,1.2-6.4,1.6-9.5,1.3c-7-0.8-13.5-5.3-16.2-12.4C20.8,59.2,21.6,57.3,23.3,56.6z"/>
					</g>
					<g>
						
							<ellipse transform="matrix(0.1119 -0.9937 0.9937 0.1119 -36.1021 74.007)" class="st46" cx="23.4" cy="57.2" rx="6.2" ry="6.2"/>
					</g>
				</g>
			</g>
		</g>
	</g>
</g>
<g id="Griglia" class="st374">
</g>
</svg>
