<?xml version="1.0" encoding="utf-8"?>
<!-- Generator: Adobe Illustrator 19.0.0, SVG Export Plug-In . SVG Version: 6.00 Build 0)  -->
<svg version="1.1" id="Livello_1" xmlns="http://www.w3.org/2000/svg" xmlns:xlink="http://www.w3.org/1999/xlink" x="0px" y="0px"
	 width="331.5px" height="329.2px" viewBox="0 0 331.5 329.2" style="enable-background:new 0 0 331.5 329.2;" xml:space="preserve"
	>
<style type="text/css">
	.st0{fill:#8FB1C2;}
	.st1{fill:#C0CE66;}
	.st2{fill:#F4CC75;}
	.st3{opacity:0.1;}
	.st4{fill:#685A37;}
	.st5{opacity:0.24;fill:#FFFFFF;}
	.st6{fill:#718D99;}
	.st7{fill:#F9E2D9;}
	.st8{opacity:8.000000e-002;}
	.st9{fill:#666666;}
	.st10{fill:#FFFFFF;}
	.st11{fill:#646465;}
</style>
<g>
	<rect x="199.9" y="289.9" class="st0" width="131.3" height="39.3"/>
</g>
<g>
	<g id="XMLID_4051_">
		<g id="XMLID_4068_">
			<path id="XMLID_4069_" class="st1" d="M151.3,216.1c-3.5,0-6.3-2.8-6.3-6.3c0-3.5,2.8-6.3,6.3-6.3c14.1,0,25.6-11.5,25.6-25.6
				c0-14.1-11.5-25.6-25.6-25.6l-15.9,0c-3.5,0-6.3-2.8-6.3-6.3c0-3.5,2.8-6.3,6.3-6.3l15.9,0c21.1,0,38.2,17.1,38.2,38.2
				C189.5,198.9,172.4,216.1,151.3,216.1z"/>
		</g>
		<g id="XMLID_4066_">
			<polygon id="XMLID_4067_" class="st1" points="82.8,190.4 22.3,151.5 12.5,162.2 73.3,222.7 			"/>
		</g>
		<g id="XMLID_4064_">
			<polygon id="XMLID_4065_" class="st2" points="154.6,235.2 66,235.2 77.7,139.7 142.9,139.7 			"/>
		</g>
		<g id="XMLID_4062_" class="st3">
			<path id="XMLID_4063_" class="st4" d="M51.5,170.3L30.8,157l-11.2,12.3l18.6,18.5c2.6-1.2,5-2.9,7-5.2
				C48.3,179.3,50.8,174.4,51.5,170.3z"/>
		</g>
		<g id="XMLID_4056_">
			<g id="XMLID_4059_">
				<g id="XMLID_4060_">
					<path id="XMLID_4061_" class="st2" d="M36.3,174c8.3-9.1,7.7-23.2-1.4-31.5l-30.1,33C13.8,183.8,28,183.2,36.3,174z"/>
				</g>
			</g>
			<g id="XMLID_4057_">
				<path id="XMLID_4058_" class="st1" d="M4.2,180.2c-1-0.1-1.9-0.5-2.7-1.2c-1.9-1.8-2.1-4.7-0.3-6.7l30.1-33
					c1.8-1.9,4.7-2.1,6.7-0.3c1.9,1.8,2.1,4.7,0.3,6.7l-30.1,33C7.2,179.8,5.7,180.3,4.2,180.2z"/>
			</g>
		</g>
		<g id="XMLID_4054_">
			<polygon id="XMLID_4055_" class="st5" points="66,235.2 77.7,139.7 142.9,139.7 			"/>
		</g>
		<g id="XMLID_4052_">
			<path id="XMLID_4053_" class="st1" d="M154.6,241.5H66c-3.5,0-6.3-2.8-6.3-6.3c0-3.5,2.8-6.3,6.3-6.3l88.6,0
				c3.5,0,6.3,2.8,6.3,6.3C160.9,238.6,158.1,241.5,154.6,241.5z"/>
		</g>
	</g>
	<g>
		<g id="XMLID_2092_">
			<path id="XMLID_2093_" class="st6" d="M209.1,220.2c0.7-0.9,1.3-1.8,1.9-2.7c0,0,0-0.1,0.1-0.1c1.2-1.8,2.2-3.8,3.1-5.8
				c0-0.1,0.1-0.1,0.1-0.2c0.4-1,0.8-2,1.2-3c0-0.1,0.1-0.2,0.1-0.3c0.7-2,1.2-4.1,1.6-6.2c0-0.2,0.1-0.3,0.1-0.5
				c0.2-1,0.3-2,0.4-3.1c0-0.2,0-0.4,0-0.6c0.1-1.1,0.1-2.1,0.1-3.2h0c0,0,0-0.1,0-0.1c0-6.1,4.9-11,11-11c6.1,0,11,4.9,11,11
				c0,0,0,0,0,0c0,1,0,2-0.1,2.9c0,0.3,0,0.6,0,0.9c0,0.7-0.1,1.4-0.2,2.2c0,0.3,0,0.6-0.1,0.9c-0.1,1-0.2,1.9-0.4,2.9
				c0,0,0,0.1,0,0.1c-0.1,0.9-0.3,1.8-0.5,2.7c-0.1,0.3-0.1,0.6-0.2,0.9c-0.1,0.7-0.3,1.3-0.5,2c-0.1,0.3-0.1,0.6-0.2,0.9
				c-0.2,0.9-0.5,1.8-0.8,2.7c0,0.1-0.1,0.2-0.1,0.3c-0.2,0.8-0.5,1.6-0.8,2.4c-0.1,0.3-0.2,0.6-0.3,0.9c-0.2,0.6-0.5,1.2-0.7,1.8
				c-0.1,0.3-0.2,0.6-0.4,0.9c-0.3,0.8-0.7,1.6-1.1,2.4c-0.1,0.2-0.2,0.3-0.2,0.5c-0.3,0.7-0.7,1.4-1,2c-0.2,0.3-0.3,0.6-0.5,0.9
				c-0.3,0.5-0.6,1.1-0.9,1.6c-0.2,0.3-0.3,0.6-0.5,0.8c-0.5,0.8-0.9,1.5-1.4,2.2L209.1,220.2C209.1,220.2,209.1,220.2,209.1,220.2z
				"/>
		</g>
		<g>
			<g>
				<g id="XMLID_2086_">
					<g id="XMLID_2087_">
						<path id="XMLID_2088_" class="st0" d="M199.9,290V177.2c0-4.6,1.1-8.3,2.7-11.2c2.4-4.4,6.3-7.8,11-9.5l51.9-19.4l51.9,19.4
							c4.7,1.8,8.6,5.1,11,9.5c1.6,2.9,2.7,6.6,2.7,11.2V290H199.9z"/>
					</g>
				</g>
				<g id="XMLID_2079_">
					<rect id="XMLID_2080_" x="199.9" y="178.1" class="st6" width="131.3" height="11"/>
				</g>
				<g id="XMLID_2077_">
					<rect id="XMLID_2078_" x="199.9" y="205.2" class="st6" width="131.3" height="11"/>
				</g>
				<g id="XMLID_2075_">
					<rect id="XMLID_2076_" x="199.9" y="232.2" class="st6" width="131.3" height="11"/>
				</g>
				<g id="XMLID_5_">
					<rect id="XMLID_6_" x="199.9" y="232.1" class="st6" width="131.3" height="11"/>
				</g>
				<g id="XMLID_3_">
					<rect id="XMLID_4_" x="199.9" y="259.2" class="st6" width="131.3" height="11"/>
				</g>
			</g>
			<g>
				<path class="st7" d="M265.5,155.2c-7.8,0-14.5-4.9-17.1-11.8l17.1-6.4l17.1,6.4C280,150.3,273.3,155.2,265.5,155.2z"/>
			</g>
		</g>
		<g>
			<rect id="XMLID_1163_" x="259.6" y="124.8" class="st7" width="11.9" height="21.7"/>
			<g class="st8">
				<path class="st9" d="M271.4,124.8v10.4c-2,0.3-4.1,0.4-6.1,0.4c-1.9,0-3.9-0.1-5.7-0.4v-10.4H271.4z"/>
			</g>
		</g>
		<g id="XMLID_2058_">
			<g id="XMLID_2060_">
				<path id="XMLID_2066_" class="st7" d="M296.6,80.3c0,5.4,4.4,9.7,9.7,9.7c5.4,0,9.7-4.4,9.7-9.7c0-5.4-4.3-9.7-9.7-9.7
					C301,70.5,296.6,74.9,296.6,80.3z"/>
				<path id="XMLID_2065_" class="st7" d="M214.9,80.3c0,5.4,4.4,9.7,9.7,9.7c5.4,0,9.7-4.4,9.7-9.7c0-5.4-4.4-9.7-9.7-9.7
					C219.3,70.5,214.9,74.9,214.9,80.3z"/>
				<g id="XMLID_2061_">
					<path id="XMLID_2064_" class="st7" d="M222.8,88.7c-0.1,23.6,19,42.9,42.6,42.9l0,0c23.6,0.1,42.8-19,42.9-42.6l0.1-29.8
						c0.1-23.6-19-42.9-42.5-42.9l0,0c-23.6-0.1-42.8,19-42.9,42.6L222.8,88.7z"/>
					<g id="XMLID_2062_">
						<path id="XMLID_2063_" class="st10" d="M265.5,118.9c-15,0-27.2-10.2-27.2-22.8l54.4,0C292.7,108.7,280.5,118.9,265.5,118.9z"
							/>
					</g>
				</g>
			</g>
			<path id="XMLID_2059_" class="st11" d="M272.9,48.3l-0.1,17.9l-26.3-18.1l-0.1,18.4c0,0-29.7-18.5-29.8-18.6
				c-0.6-0.4,6.2-15.7,6.8-17c8.3-17.8,31.2-31.3,50.3-30.9c19.8,0.4,38.3,13,40.4,33.6c1.3,12.5-3.7,24.9-5.8,37.1L272.9,48.3z"/>
		</g>
		<g id="XMLID_2068_">
			<g id="XMLID_2071_">
				<path id="XMLID_2073_" class="st6" d="M298.1,212.9c7.6-11,10.5-24.2,8.1-37.4c-1.2-6.7,3.2-13,9.9-14.2
					c6.7-1.2,13,3.2,14.2,9.9c3.5,19.6-0.8,39.4-12.1,55.7l0,0L298.1,212.9L298.1,212.9z"/>
				<path id="XMLID_2072_" class="st7" d="M193.6,183.5c6.7-1.2,13,3.2,14.2,9.9c4.9,27.1,30.9,45.2,58.1,40.3
					c13.1-2.4,24.6-9.7,32.2-20.7l20.1,14c-11.3,16.3-28.4,27.3-47.9,30.8c-12.4,2.2-24.7,1.3-35.9-2.4
					c-25.3-8.2-45.5-29.7-50.6-57.7C182.5,191,186.9,184.7,193.6,183.5z"/>
			</g>
			<g id="XMLID_2069_">
				<path id="XMLID_2070_" class="st7" d="M211.6,192.7c-4,12.3-17.1,19.1-29.4,15.1c-12.3-4-19.1-17.1-15.1-29.4
					c4-12.3,17.1-19.1,29.4-15.1C208.8,167.2,215.6,180.4,211.6,192.7z"/>
			</g>
		</g>
	</g>
</g>
</svg>
